<svg xmlns="http://www.w3.org/2000/svg" x="0px" y="0px" viewBox="6.46412992477417 6.520709991455078 35.071739196777344 34.958580017089844" enable-background="new 0 0 48 48">
<g>
	
		<path fill="#FFFFFF" stroke="#000000" stroke-width="1" stroke-linecap="round" stroke-linejoin="round" stroke-miterlimit="10" d="   M41.03587,33.02119c0,4.39276-3.56535,7.9581-7.9581,7.9581c-2.25764,0-8.57102,0-10.54265,0   c-3.27921,0-5.94557-2.65613-5.94557-5.93534c0-3.27927,2.66636-5.93534,5.94557-5.93534   c1.16461,0,2.24747,0.33707,3.16692,0.91938c1.185-2.91146,4.04539-4.96483,7.37573-4.96483   C37.47052,25.06315,41.03587,28.62844,41.03587,33.02119z"/>
</g>
<g>
	
		<circle fill="#FFFFFF" stroke="#536DFE" stroke-width="1" stroke-linecap="round" stroke-linejoin="round" stroke-miterlimit="10" cx="17.11841" cy="17.17499" r="5.50582"/>
</g>
<g>
	<g>
		
			<line fill="none" stroke="#536DFE" stroke-width="1" stroke-linecap="round" stroke-linejoin="round" stroke-miterlimit="10" x1="17.11841" y1="8.02574" x2="17.11841" y2="7.02071"/>
		
			<line fill="none" stroke="#536DFE" stroke-width="1" stroke-linecap="round" stroke-linejoin="round" stroke-miterlimit="10" x1="17.11841" y1="27.32927" x2="17.11841" y2="26.32424"/>
		
			<line fill="none" stroke="#536DFE" stroke-width="1" stroke-linecap="round" stroke-linejoin="round" stroke-miterlimit="10" x1="23.58791" y1="10.70549" x2="24.29857" y2="9.99483"/>
		
			<line fill="none" stroke="#536DFE" stroke-width="1" stroke-linecap="round" stroke-linejoin="round" stroke-miterlimit="10" x1="9.93825" y1="24.35515" x2="10.64891" y2="23.64448"/>
		
			<line fill="none" stroke="#536DFE" stroke-width="1" stroke-linecap="round" stroke-linejoin="round" stroke-miterlimit="10" x1="26.26766" y1="17.17499" x2="27.27269" y2="17.17499"/>
		
			<line fill="none" stroke="#536DFE" stroke-width="1" stroke-linecap="round" stroke-linejoin="round" stroke-miterlimit="10" x1="6.96413" y1="17.17499" x2="7.96916" y2="17.17499"/>
		
			<line fill="none" stroke="#536DFE" stroke-width="1" stroke-linecap="round" stroke-linejoin="round" stroke-miterlimit="10" x1="23.58791" y1="23.64448" x2="24.29857" y2="24.35515"/>
		
			<line fill="none" stroke="#536DFE" stroke-width="1" stroke-linecap="round" stroke-linejoin="round" stroke-miterlimit="10" x1="9.93825" y1="9.99483" x2="10.64891" y2="10.70549"/>
	</g>
</g>
</svg>